<svg width="1600" height="900" viewBox="0 0 1600 900" xmlns="http://www.w3.org/2000/svg">
  <defs>
    <linearGradient id="mist" x1="0" y1="0" x2="0" y2="1">
      <stop offset="0%" stop-color="#ffc48d" stop-opacity="0.35" />
      <stop offset="100%" stop-color="#f58236" stop-opacity="0" />
    </linearGradient>
    <linearGradient id="leaf" x1="0" y1="0" x2="1" y2="1">
      <stop offset="0%" stop-color="#ffd9a8" />
      <stop offset="100%" stop-color="#ffb36b" />
    </linearGradient>
  </defs>
  <rect width="1600" height="900" fill="transparent" />
  <g opacity="0.4">
    <path d="M200 820 C320 640 520 540 620 420 C720 300 740 180 820 120" stroke="#ffd4a0" stroke-width="12" stroke-linecap="round" fill="none" />
    <path d="M1400 840 C1320 700 1180 600 1040 460 C900 320 860 200 780 140" stroke="#ffb36b" stroke-width="10" stroke-linecap="round" fill="none" />
  </g>
  <g fill='url(#leaf)' opacity='0.45'>
    <path d="M250 250 C210 300 220 360 300 390 C380 420 430 380 420 330 C410 280 350 230 250 250 Z" />
    <path d="M1320 210 C1380 260 1400 320 1340 360 C1280 400 1200 370 1210 310 C1220 250 1250 220 1320 210 Z" />
    <path d="M1160 640 C1220 700 1230 760 1160 790 C1090 820 1000 770 1020 710 C1040 650 1090 620 1160 640 Z" />
    <path d="M420 640 C360 700 350 760 420 790 C490 820 580 770 560 710 C540 650 490 620 420 640 Z" />
  </g>
  <rect width="1600" height="900" fill="url(#mist)" />
</svg>
